<?xml version="1.0" encoding="UTF-8"?>
<svg xmlns="http://www.w3.org/2000/svg" version="1.1" viewBox="0 0 1104.76 1101.75">
  <!-- Generator: Adobe Illustrator 29.9.0, SVG Export Plug-In . SVG Version: 2.1.1 Build 14)  -->
  <defs>
    <style>
      .st0 {
        fill: #fff;
      }

      .st1 {
        fill: #fe5105;
      }
    </style>
  </defs>
  <g id="logo">
    <g>
      <path class="st1" d="M846.62,117.09c-19.96-81.31-106.47-96.14-106.47-96.14-73.45-12.15-135.74-16.52-187.77-16.83v-.15c-120.37-.25-198.29,17.17-198.29,17.17-81.31,19.96-96.14,106.47-96.14,106.47-12.16,73.52-16.53,135.86-16.84,187.92h-.15c-.25,120.37,17.17,198.29,17.17,198.29,19.96,81.31,106.47,96.14,106.47,96.14,73.45,12.15,135.74,16.52,187.77,16.83v.15c120.37.25,198.29-17.17,198.29-17.17,81.31-19.96,96.14-106.47,96.14-106.47,12.16-73.52,16.53-135.86,16.84-187.92h.15c.25-120.37-17.17-198.29-17.17-198.29Z"/>
      <path class="st0" d="M756.72,230.49v-105.92h-258.7s-123.71,0-123.71,0h-.55v133.32h-25.72v106.72h25.72v151.5h124.26v-151.5h135.92c14.59.21,14.06,15.14,14.06,15.14.2,15.36-14.45,15.14-14.45,15.14h-108.13v121.22h107.47c138.81-.83,123.27-135.64,123.27-135.64.56-125.84-123.27-122.58-123.27-122.58h-45.45s-62.01,0-62.01,0h-27.4v-27.4h258.7Z"/>
    </g>
  </g>
  <g id="f5">
    <path class="st0" d="M10.32,805.09v-22.61h58.37v22.61H10.32ZM72.18,762.55c-9.73,0-16.65,2.02-20.76,6.06-4.11,4.04-6.17,10.79-6.17,20.24v96.39h-24.66v-96.59c0-16.03,4.35-28.16,13.05-36.38,8.7-8.22,21.54-12.33,38.54-12.33v22.61Z"/>
    <path class="st0" d="M92.94,741.38h79.95v23.64h-56.11l-2.06,26.51c9.45-.55,18.09.07,25.9,1.85,7.81,1.78,14.52,4.66,20.14,8.63,5.62,3.98,10,9.08,13.15,15.31,3.15,6.24,4.73,13.6,4.73,22.09,0,6.17-.96,12.16-2.88,17.98-1.92,5.83-5.07,11-9.45,15.52-4.39,4.52-10.11,8.12-17.16,10.79-7.06,2.67-15.72,4.01-26,4.01-8.5,0-16.2-.96-23.12-2.88-6.92-1.92-14.08-4.8-21.48-8.63l9.45-21.58c7.81,4.11,14.63,6.71,20.45,7.81,5.82,1.1,10.58,1.64,14.28,1.64,6.03,0,10.96-.75,14.8-2.26,3.83-1.51,6.92-3.42,9.25-5.75s3.94-4.9,4.83-7.71c.89-2.81,1.34-5.58,1.34-8.32,0-5.75-1.61-10.48-4.83-14.18-3.22-3.7-7.5-6.44-12.85-8.22-5.34-1.78-11.48-2.7-18.39-2.77-6.92-.07-14.15.65-21.68,2.16l-7.81-4.93,5.55-70.7Z"/>
    <path class="st0" d="M289.42,864.49c10.41,0,18.15-3.7,23.22-11.1h26.93c-3.43,10.41-9.49,18.64-18.19,24.66-8.7,6.03-19.29,9.04-31.75,9.04-7.95,0-15.21-1.27-21.79-3.8-6.58-2.53-12.2-6.13-16.85-10.79-4.66-4.66-8.26-10.27-10.79-16.85-2.54-6.58-3.8-13.84-3.8-21.79s1.26-15.17,3.8-21.68c2.53-6.51,6.13-12.06,10.79-16.65,4.66-4.59,10.28-8.15,16.85-10.69,6.58-2.53,13.84-3.8,21.79-3.8s15.17,1.27,21.68,3.8c6.51,2.54,12.09,6.1,16.75,10.69,4.66,4.59,8.26,10.14,10.79,16.65,2.54,6.51,3.8,13.74,3.8,21.68,0,1.51-.04,2.91-.1,4.21-.07,1.3-.17,2.64-.31,4.01h-80.36c1.37,7.13,4.45,12.64,9.25,16.54,4.79,3.9,10.89,5.86,18.29,5.86ZM315.31,819.48c-2.2-5.07-5.52-8.97-9.97-11.72-4.46-2.74-9.76-4.11-15.93-4.11s-11.44,1.37-15.82,4.11c-4.39,2.74-7.67,6.65-9.87,11.72h51.59Z"/>
    <path class="st0" d="M374.3,810.23c0,2.47,1.37,4.39,4.11,5.75,2.74,1.37,6.2,2.64,10.38,3.8,4.18,1.17,8.66,2.4,13.46,3.7,4.79,1.3,9.28,3.15,13.46,5.55,4.18,2.4,7.64,5.58,10.38,9.56,2.74,3.98,4.11,9.18,4.11,15.62,0,5.21-1,9.83-2.98,13.87-1.99,4.04-4.76,7.43-8.32,10.17-3.57,2.74-7.78,4.8-12.64,6.17-4.87,1.37-10.25,2.06-16.13,2.06-5.48,0-10.45-.55-14.9-1.64-4.46-1.1-8.43-2.43-11.92-4.01-3.5-1.58-6.51-3.29-9.05-5.14-2.54-1.85-4.62-3.46-6.27-4.83l13.15-19.32c4.38,4.11,9.15,7.19,14.29,9.25s10.24,3.08,15.31,3.08c4.25,0,7.77-.72,10.58-2.16s4.22-3.66,4.22-6.68-1.37-5.31-4.11-6.88c-2.74-1.57-6.2-2.95-10.38-4.11-4.18-1.16-8.67-2.4-13.46-3.7-4.8-1.3-9.28-3.12-13.46-5.45-4.18-2.33-7.64-5.37-10.38-9.15-2.74-3.77-4.11-8.8-4.11-15.1,0-9.45,3.32-16.78,9.97-21.99,6.65-5.21,15.79-7.81,27.44-7.81,5.07,0,9.73.48,13.97,1.44,4.25.96,8.12,2.16,11.61,3.6,3.5,1.44,6.68,3.08,9.56,4.93,2.88,1.85,5.41,3.73,7.61,5.65l-13.15,19.11c-5.48-4.52-10.79-7.67-15.93-9.45-5.14-1.78-9.83-2.67-14.08-2.67-3.98,0-7.02.62-9.14,1.85-2.13,1.23-3.19,2.88-3.19,4.93Z"/>
    <path class="st0" d="M490.21,886.69c-16.99,0-29.83-4.14-38.53-12.44-8.7-8.29-13.05-20.38-13.05-36.27v-96.59h24.66v96.39c0,9.45,2.06,16.2,6.17,20.24,4.11,4.04,11.03,6.06,20.76,6.06v22.61ZM486.72,782.49v22.61h-39.26v-22.61h39.26Z"/>
    <path class="st0" d="M499.05,827.7c0-15.62,4.59-27.37,13.77-35.25,9.18-7.88,21.58-11.82,37.2-11.82v22.61c-8.22,0-14.66,2.02-19.32,6.06-4.66,4.04-6.99,10.17-6.99,18.39v57.55h-24.66v-57.55Z"/>
    <path class="st0" d="M604.27,781.05c7.94,0,15.21,1.27,21.79,3.8,6.57,2.54,12.19,6.13,16.85,10.79,4.66,4.66,8.25,10.28,10.79,16.85,2.54,6.58,3.8,13.84,3.8,21.79v50.97h-24.66v-9.87c-2.46,3.15-6.27,5.89-11.41,8.22-5.14,2.33-11.48,3.5-19.01,3.5s-14.25-1.27-20.55-3.8c-6.3-2.53-11.71-6.13-16.24-10.79-4.52-4.66-8.05-10.27-10.58-16.85-2.54-6.58-3.8-13.84-3.8-21.79s1.26-15.17,3.8-21.68c2.53-6.51,6.13-12.06,10.79-16.65,4.66-4.59,10.24-8.15,16.75-10.69,6.5-2.53,13.73-3.8,21.68-3.8ZM632.84,834.07c0-9.59-2.57-17.06-7.71-22.4-5.14-5.34-12.02-8.02-20.65-8.02s-15.55,2.67-20.76,8.02c-5.21,5.34-7.81,12.81-7.81,22.4s2.6,17.06,7.81,22.4c5.21,5.34,12.13,8.02,20.76,8.02s15.52-2.67,20.65-8.02c5.14-5.34,7.71-12.81,7.71-22.4Z"/>
    <path class="st0" d="M719.57,886.69c-16.99,0-29.83-4.14-38.53-12.44-8.7-8.29-13.05-20.38-13.05-36.27v-96.59h24.66v96.39c0,9.45,2.06,16.2,6.17,20.24,4.11,4.04,11.03,6.06,20.76,6.06v22.61ZM716.08,782.49v22.61h-39.26v-22.61h39.26Z"/>
    <path class="st0" d="M775.88,864.49c10.41,0,18.15-3.7,23.22-11.1h26.92c-3.43,10.41-9.49,18.64-18.19,24.66-8.7,6.03-19.28,9.04-31.75,9.04-7.95,0-15.21-1.27-21.79-3.8-6.57-2.53-12.2-6.13-16.85-10.79-4.66-4.66-8.26-10.27-10.79-16.85-2.54-6.58-3.8-13.84-3.8-21.79s1.26-15.17,3.8-21.68c2.53-6.51,6.13-12.06,10.79-16.65,4.66-4.59,10.28-8.15,16.85-10.69,6.58-2.53,13.84-3.8,21.79-3.8s15.17,1.27,21.68,3.8c6.51,2.54,12.09,6.1,16.75,10.69,4.66,4.59,8.25,10.14,10.79,16.65,2.54,6.51,3.8,13.74,3.8,21.68,0,1.51-.03,2.91-.1,4.21-.07,1.3-.18,2.64-.31,4.01h-80.36c1.37,7.13,4.45,12.64,9.25,16.54,4.79,3.9,10.89,5.86,18.29,5.86ZM801.78,819.48c-2.19-5.07-5.52-8.97-9.97-11.72-4.46-2.74-9.76-4.11-15.93-4.11s-11.44,1.37-15.82,4.11c-4.39,2.74-7.68,6.65-9.87,11.72h51.59ZM761.29,772.62c3.29-4.66,6.09-9.69,8.43-15.1,2.33-5.41,3.7-10.31,4.11-14.7h16.85c-.82,3.02-1.99,6.03-3.5,9.04-1.51,3.02-3.26,5.79-5.24,8.32-1.99,2.54-4.04,4.87-6.17,6.99-2.13,2.13-4.15,3.94-6.06,5.45h-8.43Z"/>
    <path class="st0" d="M943.99,881.14c0,6.85-1.23,13.12-3.7,18.8-2.47,5.69-5.93,10.58-10.38,14.69s-9.83,7.3-16.13,9.56c-6.3,2.26-13.36,3.39-21.17,3.39-10.41,0-19.7-2.02-27.85-6.06-8.15-4.04-14.9-9.49-20.24-16.34l20.14-14.18c2.74,3.42,6.33,6.61,10.79,9.56,4.45,2.94,10.24,4.42,17.36,4.42,8.63,0,15.21-2.23,19.73-6.68,4.52-4.46,6.78-10.17,6.78-17.16v-5.96c-2.46,3.15-6.27,5.89-11.41,8.22s-11.48,3.49-19.01,3.49-14.25-1.27-20.55-3.8c-6.3-2.53-11.71-6.13-16.24-10.79-4.52-4.66-8.05-10.27-10.58-16.85-2.54-6.58-3.8-13.84-3.8-21.78s1.26-15.17,3.8-21.68c2.53-6.51,6.13-12.05,10.79-16.65,4.66-4.59,10.24-8.15,16.75-10.69,6.5-2.53,13.73-3.8,21.68-3.8s15.21,1.27,21.79,3.8c6.57,2.54,12.19,6.13,16.85,10.79,4.66,4.66,8.25,10.27,10.79,16.85,2.54,6.58,3.8,13.84,3.8,21.78v47.06ZM919.33,833.87c0-9.59-2.57-17.06-7.71-22.4-5.14-5.34-12.02-8.01-20.65-8.01s-15.55,2.67-20.76,8.01c-5.21,5.34-7.81,12.81-7.81,22.4s2.6,17.06,7.81,22.4c5.21,5.34,12.13,8.01,20.76,8.01s15.52-2.67,20.65-8.01c5.14-5.34,7.71-12.81,7.71-22.4Z"/>
    <path class="st0" d="M954.06,752.69c0-3.7,1.3-6.88,3.9-9.56s5.82-4.01,9.66-4.01,7.05,1.34,9.66,4.01,3.91,5.86,3.91,9.56c0,3.98-1.3,7.26-3.91,9.87-2.6,2.6-5.82,3.9-9.66,3.9s-7.06-1.3-9.66-3.9c-2.6-2.6-3.9-5.89-3.9-9.87ZM955.3,782.49h24.66v102.76h-24.66v-102.76Z"/>
    <path class="st0" d="M1041.21,781.05c7.94,0,15.21,1.27,21.79,3.8,6.57,2.54,12.19,6.13,16.85,10.79,4.66,4.66,8.25,10.28,10.79,16.85,2.54,6.58,3.8,13.84,3.8,21.79v50.97h-24.66v-9.87c-2.46,3.15-6.27,5.89-11.41,8.22-5.14,2.33-11.48,3.5-19.01,3.5s-14.25-1.27-20.55-3.8c-6.3-2.53-11.71-6.13-16.24-10.79-4.52-4.66-8.05-10.27-10.58-16.85-2.54-6.58-3.8-13.84-3.8-21.79s1.26-15.17,3.8-21.68c2.53-6.51,6.13-12.06,10.79-16.65,4.66-4.59,10.24-8.15,16.75-10.69,6.5-2.53,13.73-3.8,21.68-3.8ZM1069.77,834.07c0-9.59-2.57-17.06-7.71-22.4-5.14-5.34-12.02-8.02-20.65-8.02s-15.55,2.67-20.76,8.02c-5.21,5.34-7.81,12.81-7.81,22.4s2.6,17.06,7.81,22.4c5.21,5.34,12.13,8.02,20.76,8.02s15.52-2.67,20.65-8.02c5.14-5.34,7.71-12.81,7.71-22.4Z"/>
  </g>
  <g id="aceleradora">
    <path class="st0" d="M72.46,986.14v55.59c0,1.89-1.53,3.43-3.43,3.43s-3.43-1.54-3.43-3.43v-8.75c-5.43,8.04-14.32,12.94-24.37,12.94-16.54,0-29.95-13.3-29.95-31.99s13.41-31.98,29.95-31.98c10.05,0,18.93,4.9,24.37,12.94v-8.75c0-1.89,1.54-3.43,3.43-3.43s3.43,1.54,3.43,3.43ZM65.86,1013.93c0-14.96-10.63-25.63-23.73-25.63s-23.73,10.67-23.73,25.63,10.63,25.64,23.73,25.64,23.73-10.67,23.73-25.64Z"/>
    <path class="st0" d="M87.95,1013.93c0-18.68,13.81-31.98,30.84-31.98,8.33,0,15.89,3.18,21.57,8.78.61.6.98,1.43.98,2.35,0,1.82-1.48,3.3-3.3,3.3-.91,0-1.74-.37-2.34-.97-4.53-4.55-10.49-7.12-16.91-7.12-13.11,0-23.73,10.67-23.73,25.63s10.63,25.64,23.73,25.64c6.43,0,12.38-2.56,16.91-7.11.6-.6,1.42-.97,2.34-.97,1.82,0,3.3,1.48,3.3,3.3,0,.92-.38,1.75-.98,2.35-5.68,5.6-13.24,8.78-21.57,8.78-17.03,0-30.84-13.3-30.84-31.99Z"/>
    <path class="st0" d="M155.1,1013.98c0-18.68,12.96-31.98,28.94-31.98,17.43,0,29.3,14.87,28.93,33.29,0,1.78-1.4,3.17-3.17,3.17h-47.27c1.74,12.25,10.53,21.03,21.6,21.12,8.71.07,14.72-3.12,21.13-7.05.49-.3,1.06-.47,1.68-.47,1.78,0,3.21,1.44,3.21,3.21,0,1.17-.63,2.2-1.56,2.76-7.29,4.38-14.51,7.91-24.45,7.89-16.36-.05-29.02-14.04-29.02-31.94ZM205.81,1012.11c-.77-13.98-10.23-23.78-21.78-23.78s-21,9.79-21.78,23.78h43.56Z"/>
    <path class="st0" d="M228.46,1041.72v-82.75c0-1.89,1.53-3.42,3.43-3.42s3.43,1.53,3.43,3.42v82.75c0,1.89-1.53,3.43-3.43,3.43s-3.43-1.54-3.43-3.43Z"/>
    <path class="st0" d="M250.29,1013.98c0-18.68,12.96-31.98,28.94-31.98,17.43,0,29.3,14.87,28.93,33.29,0,1.78-1.4,3.17-3.18,3.17h-47.27c1.74,12.25,10.53,21.03,21.6,21.12,8.71.07,14.72-3.12,21.13-7.05.49-.3,1.06-.47,1.68-.47,1.78,0,3.21,1.44,3.21,3.21,0,1.17-.63,2.2-1.56,2.76-7.29,4.38-14.51,7.91-24.45,7.89-16.36-.05-29.02-14.04-29.02-31.94ZM301.01,1012.11c-.77-13.98-10.23-23.78-21.78-23.78s-21,9.79-21.78,23.78h43.56Z"/>
    <path class="st0" d="M353.65,985.4c0,1.9-1.52,3.43-3.43,3.43-11.41.02-20.22,8.11-20.22,20.28v32.62c0,1.89-1.53,3.43-3.42,3.43s-3.43-1.54-3.43-3.43v-55.59c0-1.9,1.52-3.43,3.43-3.43s3.42,1.52,3.42,3.43v7.11c4.36-6.71,11.66-10.94,20.22-11.28,1.9,0,3.43,1.52,3.43,3.42Z"/>
    <path class="st0" d="M423.42,986.14v55.59c0,1.89-1.54,3.43-3.43,3.43s-3.43-1.54-3.43-3.43v-8.75c-5.43,8.04-14.32,12.94-24.37,12.94-16.54,0-29.95-13.3-29.95-31.99s13.41-31.98,29.95-31.98c10.05,0,18.93,4.9,24.37,12.94v-8.75c0-1.89,1.54-3.43,3.43-3.43s3.43,1.54,3.43,3.43ZM416.82,1013.93c0-14.96-10.63-25.63-23.73-25.63s-23.73,10.67-23.73,25.63,10.63,25.64,23.73,25.64,23.73-10.67,23.73-25.64Z"/>
    <path class="st0" d="M500.08,958.98v82.75c0,1.89-1.54,3.43-3.43,3.43s-3.43-1.54-3.43-3.43v-8.73c-5.44,8.04-14.34,12.92-24.37,12.92-16.54,0-29.95-13.3-29.95-31.99s13.41-31.98,29.95-31.98c10.05,0,18.93,4.9,24.37,12.94v-35.91c0-1.89,1.54-3.42,3.43-3.42s3.43,1.53,3.43,3.42ZM493.48,1013.93c0-14.96-10.63-25.63-23.73-25.63s-23.73,10.67-23.73,25.63,10.63,25.64,23.73,25.64,23.73-10.67,23.73-25.64Z"/>
    <path class="st0" d="M515.57,1013.93c0-18.68,13.81-31.98,30.84-31.98s30.84,13.3,30.84,31.98-13.81,31.99-30.84,31.99-30.84-13.3-30.84-31.99ZM570.14,1013.93c0-14.96-10.63-25.63-23.73-25.63s-23.73,10.67-23.73,25.63,10.63,25.64,23.73,25.64,23.73-10.67,23.73-25.64Z"/>
    <path class="st0" d="M623.25,985.4c0,1.9-1.52,3.43-3.43,3.43-11.41.02-20.22,8.11-20.22,20.28v32.62c0,1.89-1.54,3.43-3.43,3.43s-3.43-1.54-3.43-3.43v-55.59c0-1.9,1.52-3.43,3.43-3.43s3.43,1.52,3.43,3.43v7.11c4.36-6.71,11.66-10.94,20.22-11.28,1.9,0,3.43,1.52,3.43,3.42Z"/>
    <path class="st0" d="M693.01,986.14v55.59c0,1.89-1.54,3.43-3.43,3.43s-3.43-1.54-3.43-3.43v-8.75c-5.43,8.04-14.32,12.94-24.37,12.94-16.54,0-29.95-13.3-29.95-31.99s13.41-31.98,29.95-31.98c10.05,0,18.93,4.9,24.37,12.94v-8.75c0-1.89,1.54-3.43,3.43-3.43s3.43,1.54,3.43,3.43ZM686.41,1013.93c0-14.96-10.63-25.63-23.73-25.63s-23.73,10.67-23.73,25.63,10.63,25.64,23.73,25.64,23.73-10.67,23.73-25.64Z"/>
    <path class="st0" d="M812.83,958.98v82.75c0,1.89-1.54,3.43-3.43,3.43s-3.43-1.54-3.43-3.43v-8.73c-5.44,8.04-14.34,12.92-24.37,12.92-16.54,0-29.95-13.3-29.95-31.99s13.41-31.98,29.95-31.98c10.05,0,18.93,4.9,24.37,12.94v-35.91c0-1.89,1.54-3.42,3.43-3.42s3.43,1.53,3.43,3.42ZM806.23,1013.93c0-14.96-10.63-25.63-23.73-25.63s-23.73,10.67-23.73,25.63,10.63,25.64,23.73,25.64,23.73-10.67,23.73-25.64Z"/>
    <path class="st0" d="M829.59,969c0-2.82,2.1-4.82,4.7-4.82s4.7,2.01,4.7,4.82-2.1,4.82-4.7,4.82-4.7-2.01-4.7-4.82ZM830.86,1041.72v-55.59c0-1.89,1.53-3.43,3.42-3.43s3.43,1.54,3.43,3.43v55.59c0,1.89-1.54,3.43-3.43,3.43s-3.42-1.54-3.42-3.43Z"/>
    <path class="st0" d="M915.13,986.14v52.06c0,10.12-1.65,15.88-5.58,20.97-3.97,5.14-10.93,9.14-18.86,10.86-9.57,2.08-20.51.32-31.41-4.97-1.08-.52-1.83-1.63-1.83-2.91,0-1.79,1.45-3.24,3.24-3.24.52,0,1.02.13,1.46.35,9.59,4.82,18.83,6.36,27.04,4.58,6.43-1.4,11.49-4.33,14.73-8.54,2.83-3.66,4.36-8.36,4.36-17.19v-5.13c-5.43,8.04-14.32,12.94-24.37,12.94-16.54,0-29.95-13.3-29.95-31.99s13.41-31.98,29.95-31.98c10.05,0,18.93,4.9,24.37,12.94v-8.75c0-1.89,1.54-3.43,3.43-3.43s3.43,1.54,3.43,3.43ZM908.53,1013.93c0-14.96-10.63-25.63-23.73-25.63s-23.73,10.67-23.73,25.63,10.63,25.64,23.73,25.64,23.73-10.67,23.73-25.64Z"/>
    <path class="st0" d="M931.39,969c0-2.82,2.1-4.82,4.7-4.82s4.7,2.01,4.7,4.82-2.1,4.82-4.7,4.82-4.7-2.01-4.7-4.82ZM932.66,1041.72v-55.59c0-1.89,1.53-3.43,3.42-3.43s3.43,1.54,3.43,3.43v55.59c0,1.89-1.54,3.43-3.43,3.43s-3.42-1.54-3.42-3.43Z"/>
    <path class="st0" d="M998.33,1041.08c0,1.41-.95,2.6-2.25,2.96-8.55,2.36-15.78,3-21.75-1.19-5.73-4.03-7.66-10.41-7.66-18.93v-33.33h-10.79c-1.78,0-3.17-1.4-3.17-3.18s1.39-3.17,3.17-3.17h10.79v-16.42c0-1.89,1.52-3.44,3.43-3.42,1.9.02,3.42,1.54,3.42,3.42v16.42h19.16c1.78,0,3.17,1.4,3.17,3.17s-1.39,3.18-3.17,3.18h-19.16v33.14c0,6.68,1.07,10.61,4.11,13.41,4.57,4.19,10.91,2.54,16.8.97,1.98-.54,3.89.97,3.89,2.97Z"/>
    <path class="st0" d="M1068.84,986.14v55.59c0,1.89-1.54,3.43-3.43,3.43s-3.43-1.54-3.43-3.43v-8.75c-5.43,8.04-14.32,12.94-24.37,12.94-16.54,0-29.95-13.3-29.95-31.99s13.41-31.98,29.95-31.98c10.05,0,18.93,4.9,24.37,12.94v-8.75c0-1.89,1.54-3.43,3.43-3.43s3.43,1.54,3.43,3.43ZM1062.24,1013.93c0-14.96-10.63-25.63-23.73-25.63s-23.73,10.67-23.73,25.63,10.63,25.64,23.73,25.64,23.73-10.67,23.73-25.64Z"/>
    <path class="st0" d="M1086.62,1041.72v-82.75c0-1.89,1.54-3.42,3.43-3.42s3.42,1.53,3.42,3.42v82.75c0,1.89-1.53,3.43-3.42,3.43s-3.43-1.54-3.43-3.43Z"/>
  </g>
</svg>